#!OML:ASF E:\acrobat2\Project_11_07_03\Capture day 1\Session 1\Acrobat.ASF
:FULLY-SPECIFIED
:DEGREES
455
root 11.5202 17.6009 2.62326 4.34901 10.6422 0.0200848
lowerback -4.93689 -3.40421 -1.27696
upperback -1.78662 -4.509 2.62103
thorax 1.23309 -2.25 3.13346
lowerneck 2.28494 -2.70784 -1.46113
upperneck 4.16206 -3.8803 7.9035
head 1.11977 -1.88989 2.75535
rclavicle 7.68054e-014 -3.18055e-014
rhumerus -53.0692 -11.1048 -69.8119
rradius 20.3855
rwrist 11.726
rhand 3.20492 -48.4504
rfingers 7.12502
rthumb 28.6564 -76.2728
lclavicle 7.68054e-014 -3.18055e-014
lhumerus -21.9176 -21.509 88.7307
lradius 31.2954
lwrist 14.7269
lhand -17.4524 -13.1724
lfingers 7.12502
lthumb 8.79878 16.6242
rfemur -19.1245 2.36277 16.7764
rtibia 3.78838
rfoot -4.36014 -23.4023
rtoes 16.2474
lfemur 11.836 -1.65676 -15.2398
ltibia 24.4819
lfoot 1.96861 -13.0218
ltoes 43.7109
456
root 11.5148 17.6337 2.80918 4.2361 10.7945 -0.514582
lowerback -4.9034 -3.33239 -0.751529
upperback -1.84783 -4.43923 2.8601
thorax 1.12642 -2.21352 3.09572
lowerneck 2.3144 -2.74211 -1.53483
upperneck 4.37131 -3.93773 7.82322
head 1.1841 -1.9161 2.74158
rclavicle 2.23136e-014 -3.18055e-014
rhumerus -53.028 -11.4013 -69.2777
rradius 19.9984
rwrist 12.3568
rhand 3.34482 -48.5913
rfingers 7.12502
rthumb 28.79 -76.391
lclavicle 2.23136e-014 -3.18055e-014
lhumerus -22.2891 -20.9722 89.3882
lradius 30.2468
lwrist 14.4318
lhand -17.241 -12.9572
lfingers 7.12502
lthumb 9.00278 16.8307
rfemur -18.6669 1.66637 17.7157
rtibia 4.19109
rfoot -3.9036 -22.3221
rtoes 17.1517
lfemur 10.9338 -1.26598 -14.184
ltibia 26.7529
lfoot 3.47529 -11.3297
ltoes 43.6307
457
root 11.5075 17.669 2.99219 4.11781 10.8992 -0.992964
lowerback -4.85394 -3.24327 -0.303319
upperback -1.88688 -4.34178 3.07316
thorax 1.03631 -2.16391 3.07596
lowerneck 2.32053 -2.78411 -1.62607
upperneck 4.55434 -4.00521 7.77846
head 1.24615 -1.94754 2.74268
rclavicle -1.69712e-014 2.94201e-014
rhumerus -52.9179 -11.7044 -68.7946
rradius 19.6464
rwrist 12.9807
rhand 3.55068 -48.7766
rfingers 7.12502
rthumb 28.9866 -76.5427
lclavicle -1.69712e-014 2.94201e-014
lhumerus -22.6361 -20.4046 90.0045
lradius 29.1766
lwrist 14.0748
lhand -16.9686 -12.7014
lfingers 7.12502
lthumb 9.26565 17.075
rfemur -18.1371 1.28985 18.5444
rtibia 4.52665
rfoot -3.8661 -21.4039
rtoes 17.8957
lfemur 9.94352 -0.828769 -13.1956
ltibia 29.1138
lfoot 5.0323 -9.30281
ltoes 43.4895
458
root 11.4983 17.7065 3.17242 3.9842 10.9986 -1.43507
lowerback -4.78784 -3.15289 0.0824002
upperback -1.8986 -4.23914 3.26608
thorax 0.968392 -2.11228 3.07034
lowerneck 2.28563 -2.83418 -1.70672
upperneck 4.72699 -4.08324 7.7476
head 1.31287 -1.98345 2.74587
rclavicle 4.26145e-015 -4.77083e-014
rhumerus -52.7186 -11.9821 -68.4029
rradius 19.3304
rwrist 13.5465
rhand 3.82889 -49.0316
rfingers 7.12502
rthumb 29.2523 -76.7517
lclavicle 4.26145e-015 -4.77083e-014
lhumerus -22.958 -19.8286 90.5686
lradius 28.1161
lwrist 13.6792
lhand -16.6063 -12.3656
lfingers 7.12502
lthumb 9.6152 17.3949
rfemur -17.507 1.09642 19.3076
rtibia 4.76376
rfoot -4.06177 -20.668
rtoes 18.265
lfemur 8.88274 -0.417418 -12.2736
ltibia 31.5294
lfoot 6.59608 -7.01559
ltoes 43.1409
459
root 11.4873 17.7455 3.34963 3.83398 11.1461 -1.85563
lowerback -4.71181 -3.07868 0.416082
upperback -1.88194 -4.15553 3.44622
thorax 0.928387 -2.07058 3.07875
lowerneck 2.20666 -2.8912 -1.7844
upperneck 4.89409 -4.1713 7.74455
head 1.38699 -2.02331 2.75719
rclavicle 4.10987e-014 -1.43125e-014
rhumerus -52.4287 -12.2085 -68.1254
rradius 19.0624
rwrist 14.0161
rhand 4.14453 -49.3533
rfingers 7.12502
rthumb 29.5537 -77.0205
lclavicle 4.10987e-014 -1.43125e-014
lhumerus -23.2594 -19.2663 91.0794
lradius 27.0962
lwrist 13.2587
lhand -16.1315 -11.9787
lfingers 7.12502
lthumb 10.0733 17.7602
rfemur -16.7595 0.97396 20.019
rtibia 4.8334
rfoot -4.38361 -20.107
rtoes 18.4286
lfemur 7.74876 -0.098207 -11.4144
ltibia 33.9738
lfoot 8.16961 -4.60271
ltoes 42.5428
460
root 11.4748 17.7853 3.52382 3.6742 11.3681 -2.26265
lowerback -4.63754 -3.02404 0.71522
upperback -1.84247 -4.09656 3.60981
thorax 0.915591 -2.0414 3.08689
lowerneck 2.09402 -2.95983 -1.86349
upperneck 5.04923 -4.27587 7.7839
head 1.46566 -2.07053 2.78245
rclavicle 5.07274e-014 -3.81667e-014
rhumerus -52.074 -12.3766 -67.978
rradius 18.86
rwrist 14.3779
rhand 4.4558 -49.7142
rfingers 7.12502
rthumb 29.8508 -77.3284
lclavicle 5.07274e-014 -3.81667e-014
lhumerus -23.5445 -18.7479 91.5368
lradius 26.1272
lwrist 12.8404
lhand -15.5312 -11.5781
lfingers 7.12502
lthumb 10.6524 18.1319
rfemur -15.9097 0.815024 20.694
rtibia 4.72327
rfoot -4.73596 -19.6381
rtoes 18.4677
lfemur 6.53055 0.0962713 -10.6151
ltibia 36.4359
lfoot 9.77519 -2.22632
ltoes 41.7135
